<svg xmlns="http://www.w3.org/2000/svg" viewBox="0 0 45 45" width="45" height="45">
  <path d="M45.328 20.4557C43.6593 14.5746 39.6749 9.55369 34.3378 6.51024C34.0364 6.34116 33.757 6.12062 33.5218 5.86332C30.4122 2.51847 26.7806 0.820312 22.7007 0.820312C18.6207 0.820312 14.9891 2.51847 11.8795 5.87067C11.6443 6.12797 11.3649 6.34851 11.0635 6.51759C5.7191 9.56104 1.74203 14.582 0.0732827 20.4557C-0.0296359 20.8086 -0.0296359 21.1908 0.0732827 21.5437C1.74203 27.4248 5.72645 32.4457 11.0709 35.4892C11.3723 35.6582 11.6516 35.8788 11.8869 36.1361C14.9965 39.4809 18.628 41.1791 22.708 41.1791C26.788 41.1791 30.4195 39.4809 33.5292 36.1287C33.7644 35.8714 34.0438 35.6509 34.3452 35.4818C39.6822 32.4384 43.6593 27.4174 45.328 21.5363C45.431 21.1835 45.431 20.8012 45.328 20.4483V20.4557ZM37.0872 21.6393C35.9551 26.1236 34.4628 29.7625 32.6323 32.4825C32.5514 32.6074 32.4265 32.6883 32.2868 32.7324C29.1919 33.644 25.9793 34.1071 22.708 34.1071C19.4367 34.1071 16.2168 33.6366 13.1145 32.7251C12.9749 32.681 12.8499 32.5927 12.769 32.4751C10.9385 29.7551 9.44622 26.1236 8.31412 21.6393C8.2112 21.2202 8.2112 20.7718 8.31412 20.3528C9.44622 15.8685 10.9385 12.2296 12.769 9.50958C12.8499 9.3846 12.9749 9.30374 13.1145 9.25963C16.2094 8.34807 19.422 7.88493 22.6933 7.88493C25.9646 7.88493 29.1845 8.35542 32.2868 9.26698C32.4265 9.31109 32.5514 9.39931 32.6323 9.51693C34.4628 12.2369 35.9551 15.8685 37.0872 20.3528C37.1901 20.7718 37.1901 21.2202 37.0872 21.6393Z" fill="url(#paint0_linear_44_2298)"/>
  <defs>
    <linearGradient xmlns="http://www.w3.org/2000/svg" id="paint0_linear_44_2298" x1="9.0419" y1="34.6585" x2="36.3594" y2="7.34094" gradientUnits="userSpaceOnUse">
      <stop stop-color="#1EEB91"/>
      <stop offset="1" stop-color="#25D3D3"/>
    </linearGradient>
  </defs>
</svg>
